<?xml version="1.0" encoding="UTF-8" standalone="no"?>
<svg
   aria-hidden="true"
   focusable="false"
   data-prefix="fas"
   data-icon="laptop"
   class="svg-inline--fa fa-laptop fa-w-20"
   role="img"
   viewBox="0 0 640 512"
   version="1.1"
   id="svg4"
   sodipodi:docname="404works.svg"
   inkscape:version="1.1 (c68e22c387, 2021-05-23)"
   xmlns:inkscape="http://www.inkscape.org/namespaces/inkscape"
   xmlns:sodipodi="http://sodipodi.sourceforge.net/DTD/sodipodi-0.dtd"
   xmlns="http://www.w3.org/2000/svg"
   xmlns:svg="http://www.w3.org/2000/svg">
  <defs
     id="defs8" />
  <sodipodi:namedview
     id="namedview6"
     pagecolor="#ffffff"
     bordercolor="#666666"
     borderopacity="1.0"
     inkscape:pageshadow="2"
     inkscape:pageopacity="0.0"
     inkscape:pagecheckerboard="0"
     showgrid="false"
     inkscape:zoom="1.609375"
     inkscape:cx="319.68932"
     inkscape:cy="254.13592"
     inkscape:window-width="1920"
     inkscape:window-height="1043"
     inkscape:window-x="0"
     inkscape:window-y="743"
     inkscape:window-maximized="1"
     inkscape:current-layer="svg4" />
  <path
     fill="currentColor"
     d="M624 416H381.54c-.74 19.81-14.71 32-32.74 32H288c-18.69 0-33.02-17.47-32.77-32H16c-8.8 0-16 7.2-16 16v16c0 35.2 28.8 64 64 64h512c35.2 0 64-28.8 64-64v-16c0-8.8-7.2-16-16-16zM576 48c0-26.4-21.6-48-48-48H112C85.6 0 64 21.6 64 48v336h512V48zm-64 272H128V64h384v256z"
     id="path2" />
  <path
     style="fill:#ffffff;stroke-width:0.621359"
     d="M 58.617832,511.34772 C 39.590998,509.65434 21.881263,499.10825 11.175441,483.09592 6.9448823,476.76843 4.3361056,470.99581 2.3349529,463.53398 0.9250647,458.27684 0.72029477,456.11393 0.46317477,443.76311 0.20989682,431.59685 0.30797353,429.54559 1.2624533,427.04632 c 1.4645459,-3.83486 4.9073723,-7.51346 8.6792943,-9.27368 l 3.1067964,-1.44982 121.009706,-0.006 121.00971,-0.006 0.0131,2.3301 c 0.0332,5.89702 4.946,15.14639 10.96876,20.65085 4.17708,3.81763 7.37954,5.72522 12.45484,7.41893 3.73623,1.24683 5.06047,1.28894 40.07767,1.27425 22.58888,-0.009 37.25928,-0.2561 38.99262,-0.65551 5.15026,-1.18676 10.71649,-4.33144 14.68886,-8.29858 5.22959,-5.2227 8.32031,-11.64046 9.27122,-19.25125 l 0.43339,-3.46879 122.49151,0.0136 c 121.84108,0.0136 122.50637,0.0204 125.28763,1.27787 3.42282,1.54757 6.50184,4.41512 8.28744,7.71819 1.26975,2.34876 1.34301,3.28842 1.33189,17.08738 -0.0106,13.04932 -0.15982,15.18827 -1.40477,20.11621 -2.86142,11.32668 -8.82094,21.95447 -16.86879,30.0825 -5.59335,5.6491 -10.93584,9.42624 -18.15647,12.83661 -7.28748,3.44194 -13.84223,5.16591 -22.58736,5.94071 -8.18927,0.72556 -513.566597,0.6906 -521.731678,-0.0361 z"
     id="path84" />
  <path
     style="fill:#ffffff;stroke-width:0.621359"
     d="M 64.458417,211.72816 64.621359,39.456311 66.622756,33.727172 C 70.098954,23.776314 75.41639,16.238566 83.114487,10.349269 88.530928,6.2055115 93.940481,3.5922628 100.993,1.712509 l 5.25943,-1.40182939 H 320 533.74757 l 5.28156,1.39493929 c 16.65709,4.3993933 28.58614,15.5422441 34.37874,32.1129691 l 1.97077,5.637723 0.16294,172.271849 L 575.70453,384 H 320 64.295476 Z M 512.31068,192 V 64 H 320 127.68932 V 192 320 H 320 512.31068 Z"
     id="path123" />
</svg>
