<?xml version="1.0" encoding="UTF-8" standalone="no"?>
<svg
   aria-hidden="true"
   focusable="false"
   data-prefix="far"
   data-icon="envelope"
   class="svg-inline--fa fa-envelope fa-w-16"
   role="img"
   viewBox="0 0 512 512"
   version="1.1"
   id="svg4"
   sodipodi:docname="email.svg"
   inkscape:version="1.1 (c68e22c387, 2021-05-23)"
   xmlns:inkscape="http://www.inkscape.org/namespaces/inkscape"
   xmlns:sodipodi="http://sodipodi.sourceforge.net/DTD/sodipodi-0.dtd"
   xmlns="http://www.w3.org/2000/svg"
   xmlns:svg="http://www.w3.org/2000/svg">
  <defs
     id="defs8" />
  <sodipodi:namedview
     id="namedview6"
     pagecolor="#ffffff"
     bordercolor="#666666"
     borderopacity="1.0"
     inkscape:pageshadow="2"
     inkscape:pageopacity="0.0"
     inkscape:pagecheckerboard="0"
     showgrid="false"
     inkscape:zoom="1.609375"
     inkscape:cx="255.68932"
     inkscape:cy="204.42718"
     inkscape:window-width="1920"
     inkscape:window-height="1009"
     inkscape:window-x="1920"
     inkscape:window-y="34"
     inkscape:window-maximized="1"
     inkscape:current-layer="svg4" />
  <path
     fill="currentColor"
     d="M464 64H48C21.49 64 0 85.49 0 112v288c0 26.51 21.49 48 48 48h416c26.51 0 48-21.49 48-48V112c0-26.51-21.49-48-48-48zm0 48v40.805c-22.422 18.259-58.168 46.651-134.587 106.49-16.841 13.247-50.201 45.072-73.413 44.701-23.208.375-56.579-31.459-73.413-44.701C106.18 199.465 70.425 171.067 48 152.805V112h416zM48 400V214.398c22.914 18.251 55.409 43.862 104.938 82.646 21.857 17.205 60.134 55.186 103.062 54.955 42.717.231 80.509-37.199 103.053-54.947 49.528-38.783 82.032-64.401 104.947-82.653V400H48z"
     id="path2" />
  <path
     style="fill:#ffffff;stroke-width:0.621359"
     d="M 43.354193,447.36402 C 21.834782,445.07832 4.3936753,428.67603 0.95589331,407.49103 c -0.87978476,-5.42159 -0.87978476,-297.56047 0,-302.98206 C 4.0113045,85.680291 17.884202,70.732101 36.970874,65.702454 L 42.252427,64.31068 H 256 469.74757 l 5.25943,1.401829 c 16.78161,4.472912 28.64307,15.402139 34.22339,31.533659 l 2.14825,6.210142 V 256 408.54369 l -2.11496,6.10974 c -5.54942,16.03128 -17.19655,26.89015 -33.92387,31.62795 l -4.97088,1.40794 -211.26213,0.0758 c -116.19418,0.0417 -213.28285,-0.1388 -215.752607,-0.40113 z M 464.46602,307.19566 c 0,-79.67333 -0.12504,-92.91171 -0.87482,-92.62398 -0.48115,0.18463 -9.01351,6.787 -18.96079,14.67191 -9.94728,7.88493 -33.70621,26.6028 -52.79762,41.59528 -19.0914,14.99248 -40.26779,31.81898 -47.05863,37.39221 -14.56431,11.95292 -20.99036,16.78477 -31.02851,23.33087 -14.06164,9.16989 -26.90768,14.94453 -40.34759,18.13733 -5.97322,1.419 -8.16672,1.62371 -17.39806,1.62371 -9.23134,0 -11.42484,-0.20471 -17.39806,-1.62371 -13.43991,-3.1928 -26.28595,-8.96744 -40.34759,-18.13733 -10.13772,-6.61103 -16.38056,-11.31841 -32.35144,-24.39448 -7.51844,-6.15568 -29.32815,-23.48777 -48.46602,-38.51574 -19.137861,-15.02798 -42.289743,-33.26376 -51.448621,-40.52397 -9.158877,-7.26021 -17.057906,-13.35594 -17.553396,-13.54608 -0.784476,-0.30103 -0.900892,11.66685 -0.900892,92.61398 v 92.95968 H 256 464.46602 Z m -196.03884,-5.28604 c 12.34406,-4.11429 24.58327,-12.18317 49.3948,-32.56427 6.66587,-5.47559 29.5955,-23.68376 50.95472,-40.46259 33.83473,-26.57903 51.05159,-40.20416 87.43354,-69.19344 l 8.18806,-6.52427 0.0339,-20.6602 0.0339,-20.66019 H 255.99162 47.517228 l 0.163716,20.6553 0.163716,20.6553 8.699029,7.02141 c 17.61272,14.21608 47.625241,37.99814 87.300971,69.17764 22.38447,17.59103 45.45243,35.90361 51.26214,40.69463 22.65513,18.68274 35.2185,27.07934 46.89155,31.33947 9.82224,3.58468 16.82329,3.72274 26.42883,0.52121 z"
     id="path84" />
  <path
     style="fill:#ffffff;stroke-width:0.621359"
     d="M 41.215289,446.7429 C 22.140039,443.52395 6.9299517,429.62424 2.1346589,411.02913 0.85698473,406.07458 0.85277247,405.56532 0.85236853,256 L 0.85196334,105.94175 2.1489425,100.97087 C 6.6859905,83.581935 19.481666,70.919212 37.579744,65.908216 l 4.647705,-1.286857 h 213.845891 213.8459 l 5.37486,1.557577 c 13.06029,3.78472 23.36892,11.543394 29.44315,22.160045 1.05637,1.846354 2.91294,5.957163 4.12569,9.13513 l 2.20502,5.778119 V 256 408.74777 l -2.2105,5.80087 c -1.21577,3.19048 -2.94203,7.05913 -3.83613,8.59699 -6.42378,11.04905 -16.01943,18.46897 -29.24758,22.61592 l -5.15829,1.61709 -213.24948,-0.0731 C 140.07877,447.26536 42.810958,447.01216 41.215289,446.7429 Z M 464.46602,307.60949 c 0,-62.06704 -0.20814,-92.6745 -0.63202,-92.93646 -0.3476,-0.21483 -3.07382,1.50784 -6.05825,3.82817 -15.99134,12.43292 -79.05768,62.19926 -101.42624,80.03656 -29.66199,23.65328 -31.30027,24.91823 -38.83495,29.98541 -15.77255,10.60725 -27.32574,16.18392 -41.94174,20.24509 -6.94126,1.92869 -7.50107,1.98547 -19.57282,1.98547 -12.07175,0 -12.63156,-0.0568 -19.57282,-1.98547 -21.87683,-6.07864 -36.86536,-15.13977 -73.32038,-44.32493 -20.89882,-16.73118 -101.47685,-80.33687 -110.446861,-87.18318 -2.136063,-1.63033 -4.163247,-2.79151 -4.504855,-2.58038 -0.4094,0.25302 -0.621103,31.92809 -0.621103,92.92972 v 92.54585 H 256 464.46602 Z m -199.87675,-4.35812 c 13.69724,-3.50316 25.50708,-10.93159 53.70786,-33.78244 6.06279,-4.91262 27.24073,-21.72173 47.06209,-37.35357 19.82136,-15.63185 50.21885,-39.65071 67.54997,-53.37525 l 31.51113,-24.9537 0.0229,-20.97088 0.0229,-20.97087 H 255.61685 46.767681 l 0.374666,1.39806 c 0.206065,0.76893 0.378483,10.12073 0.383149,20.78177 l 0.0085,19.38372 15.37864,12.34884 c 8.458253,6.79187 36.768932,29.22819 62.912624,49.85848 26.14368,20.6303 55.92233,44.23531 66.17476,52.45557 26.39863,21.16609 35.9171,27.77069 46.32506,32.14365 10.15207,4.26544 17.93927,5.16579 26.26421,3.03662 z"
     id="path197" />
</svg>
