<?xml version="1.0" encoding="UTF-8" standalone="no"?>
<svg
   aria-hidden="true"
   focusable="false"
   data-prefix="fab"
   data-icon="github"
   class="svg-inline--fa fa-github fa-w-16"
   role="img"
   viewBox="0 0 496 512"
   version="1.1"
   id="svg4"
   sodipodi:docname="github.svg"
   inkscape:version="1.1 (c68e22c387, 2021-05-23)"
   xmlns:inkscape="http://www.inkscape.org/namespaces/inkscape"
   xmlns:sodipodi="http://sodipodi.sourceforge.net/DTD/sodipodi-0.dtd"
   xmlns="http://www.w3.org/2000/svg"
   xmlns:svg="http://www.w3.org/2000/svg">
  <defs
     id="defs8" />
  <sodipodi:namedview
     id="namedview6"
     pagecolor="#ffffff"
     bordercolor="#666666"
     borderopacity="1.0"
     inkscape:pageshadow="2"
     inkscape:pageopacity="0.0"
     inkscape:pagecheckerboard="0"
     showgrid="false"
     inkscape:zoom="1.609375"
     inkscape:cx="248.23301"
     inkscape:cy="254.13592"
     inkscape:window-width="1920"
     inkscape:window-height="1043"
     inkscape:window-x="0"
     inkscape:window-y="743"
     inkscape:window-maximized="1"
     inkscape:current-layer="svg4" />
  <path
     fill="currentColor"
     d="M165.9 397.4c0 2-2.3 3.6-5.2 3.6-3.3.3-5.6-1.3-5.6-3.6 0-2 2.3-3.6 5.2-3.6 3-.3 5.6 1.3 5.6 3.6zm-31.1-4.5c-.7 2 1.3 4.3 4.3 4.9 2.6 1 5.6 0 6.2-2s-1.3-4.3-4.3-5.2c-2.6-.7-5.5.3-6.2 2.3zm44.2-1.7c-2.9.7-4.9 2.6-4.6 4.9.3 2 2.9 3.3 5.9 2.6 2.9-.7 4.9-2.6 4.6-4.6-.3-1.9-3-3.2-5.9-2.9zM244.8 8C106.1 8 0 113.3 0 252c0 110.9 69.8 205.8 169.5 239.2 12.8 2.3 17.3-5.6 17.3-12.1 0-6.2-.3-40.4-.3-61.4 0 0-70 15-84.7-29.8 0 0-11.4-29.1-27.8-36.6 0 0-22.9-15.7 1.6-15.4 0 0 24.9 2 38.6 25.8 21.9 38.6 58.6 27.5 72.9 20.9 2.3-16 8.8-27.1 16-33.7-55.9-6.2-112.3-14.3-112.3-110.5 0-27.5 7.6-41.3 23.6-58.9-2.6-6.5-11.1-33.3 2.6-67.9 20.9-6.5 69 27 69 27 20-5.6 41.5-8.5 62.8-8.5s42.8 2.9 62.8 8.5c0 0 48.1-33.6 69-27 13.7 34.7 5.2 61.4 2.6 67.9 16 17.7 25.8 31.5 25.8 58.9 0 96.5-58.9 104.2-114.8 110.5 9.2 7.9 17 22.9 17 46.4 0 33.7-.3 75.4-.3 83.6 0 6.5 4.6 14.4 17.3 12.1C428.2 457.8 496 362.9 496 252 496 113.3 383.5 8 244.8 8zM97.2 352.9c-1.3 1-1 3.3.7 5.2 1.6 1.6 3.9 2.3 5.2 1 1.3-1 1-3.3-.7-5.2-1.6-1.6-3.9-2.3-5.2-1zm-10.8-8.1c-.7 1.3.3 2.9 2.3 3.9 1.6 1 3.6.7 4.3-.7.7-1.3-.3-2.9-2.3-3.9-2-.6-3.6-.3-4.3.7zm32.4 35.6c-1.6 1.3-1 4.3 1.3 6.2 2.3 2.3 5.2 2.6 6.5 1 1.3-1.3.7-4.3-1.3-6.2-2.2-2.3-5.2-2.6-6.5-1zm-11.4-14.7c-1.6 1-1.6 3.6 0 5.9 1.6 2.3 4.3 3.3 5.6 2.3 1.6-1.3 1.6-3.9 0-6.2-1.4-2.3-4-3.3-5.6-2z"
     id="path2" />
  <path
     style="fill:#ffffff;stroke-width:0.621359"
     d="m 169.81503,490.85656 c -4.60756,-1.14678 -21.68315,-8.19599 -30.70398,-12.67532 -16.34551,-8.11642 -30.80778,-17.38205 -45.596487,-29.21255 -9.391807,-7.51316 -28.26381,-26.1802 -35.529312,-35.14345 C 26.34865,374.79605 7.8607049,330.74396 1.7883727,279.92233 0.41455994,268.42438 0.21649603,237.80881 1.4446787,226.79612 7.9563731,168.40799 30.040144,120.23439 68.349515,80.849709 103.94178,44.258405 149.92198,20.506819 201.94175,11.841152 c 28.01862,-4.6674578 59.35157,-4.556512 87.81734,0.31095 31.11371,5.320243 62.82586,17.049786 88.9908,32.915509 31.03317,18.817684 57.08411,43.672428 76.88745,73.356939 20.91207,31.34645 33.26448,65.07508 38.43725,104.95409 1.40165,10.80593 1.61513,44.4713 0.35067,55.30097 -2.92686,25.06753 -8.67157,48.72185 -16.75034,68.97088 -26.29024,65.89515 -76.70281,115.82641 -141.43528,140.08491 -11.73759,4.39866 -16.59237,4.29117 -21.69114,-0.48027 -3.45268,-3.23102 -3.46581,-3.44522 -3.09539,-50.50004 0.36634,-46.53717 0.0952,-52.984 -2.6615,-63.28495 -2.43069,-9.08272 -6.01143,-15.99954 -11.33078,-21.88744 -2.48336,-2.74877 -2.94286,-2.51093 7.00519,-3.62579 25.12767,-2.81601 43.30459,-7.26583 57.16505,-13.99435 9.06245,-4.39934 13.84191,-7.63678 20.13734,-13.64029 14.15235,-13.49614 22.51501,-31.55092 25.86698,-55.84618 1.32876,-9.631 1.88163,-31.0189 0.97652,-37.77702 -2.12161,-15.84132 -8.58371,-28.87473 -21.47418,-43.31128 -2.43614,-2.72834 -3.40208,-4.26749 -3.1196,-4.97088 1.42577,-3.55021 3.43495,-13.53453 4.05876,-20.16936 1.20821,-12.85036 -0.54505,-26.95126 -5.08731,-40.91556 -2.20782,-6.78751 -2.10452,-6.70802 -8.73536,-6.72157 -12.60695,-0.0257 -31.43296,7.7421 -55.42123,22.86748 l -7.38061,4.65372 -6.91065,-1.67606 c -19.30268,-4.68154 -33.08265,-6.23888 -55.37668,-6.2584 -21.87684,-0.0191 -34.97901,1.36487 -53.28499,5.62864 -3.84277,0.89505 -7.58693,1.76433 -8.32036,1.93175 -0.93052,0.2124 -4.12262,-1.4144 -10.5631,-5.38331 -22.64307,-13.95365 -41.80688,-21.77042 -53.34611,-21.75946 -6.88987,0.007 -6.82836,-0.0375 -8.97651,6.4208 -6.50398,19.55367 -7.26886,42.41014 -1.95706,58.48081 l 1.22645,3.71056 -2.29207,2.71194 c -13.623382,16.11893 -19.0241,28.20871 -20.706511,46.35252 -0.397844,4.29053 -0.535723,11.53198 -0.321373,16.87878 1.398735,34.89034 9.01783,57.21498 25.186324,73.79821 15.48784,15.88512 35.73359,23.72666 73.88195,28.61582 6.24888,0.80087 11.48199,1.57652 11.62914,1.72366 0.14715,0.14715 -0.99281,1.79171 -2.53325,3.65459 -5.01755,6.0678 -9.43461,16.16474 -11.41772,26.09974 l -0.68876,3.45057 -5.41822,1.99007 c -9.09657,3.3411 -13.24789,4.09132 -22.81628,4.12329 -9.40058,0.0314 -14.19673,-0.9796 -21.11054,-4.45002 -8.90643,-4.47062 -14.74259,-10.20764 -22.50846,-22.12614 -5.42392,-8.32424 -8.75171,-12.09131 -14.47809,-16.38922 -9.795568,-7.35205 -23.929334,-11.49919 -31.983821,-9.38473 -3.751432,0.98483 -4.923744,2.70635 -3.884583,5.70446 0.901679,2.60146 6.566338,8.05062 10.911658,10.49655 9.086956,5.11496 20.685782,21.2704 26.646906,37.11519 5.70941,15.17574 18.35737,24.80487 37.924,28.87225 10.75499,2.23567 29.47831,2.38499 42.07086,0.3355 2.02145,-0.329 3.73213,-0.53436 3.80152,-0.45636 0.0694,0.078 0.22641,14.54182 0.34894,32.14182 l 0.22278,32 -1.64781,2.80279 c -0.95555,1.6253 -2.65773,3.3704 -4.05174,4.15388 -2.83282,1.59214 -7.66063,2.21901 -10.89319,1.41445 z"
     id="path84" />
  <path
     style="fill:#ffffff;stroke-width:0.621359"
     d="m 175.65825,397.54563 c -2.03309,-2.03309 -0.004,-5.26314 3.68235,-5.86132 2.67721,-0.43445 5.5743,1.58107 5.06608,3.52449 -0.65246,2.49502 -6.91691,4.16834 -8.74843,2.33683 z"
     id="path123" />
  <path
     style="fill:#ffffff;stroke-width:0.621359"
     d="m 156.99599,399.78458 c -2.33792,-1.63754 -1.61514,-4.08881 1.52582,-5.17471 4.94687,-1.71024 9.02151,1.75662 5.562,4.73236 -1.9614,1.68713 -5.03665,1.87905 -7.08782,0.44235 z"
     id="path162" />
  <path
     style="fill:#ffffff;stroke-width:0.621359"
     d="m 138.25243,397.22909 c -2.99159,-1.09999 -3.91267,-3.60815 -1.97049,-5.3658 2.66404,-2.41092 8.80544,-0.0901 8.80544,3.32761 0,1.89254 -3.99285,3.08321 -6.83495,2.03819 z"
     id="path201" />
  <path
     style="fill:#ffffff;stroke-width:0.621359"
     d="m 122.33825,387.74054 c -1.84486,-0.74541 -3.96932,-3.63081 -3.96932,-5.39105 0,-2.01141 2.48816,-3.18035 4.66162,-2.19005 1.54196,0.70256 4.03063,4.09776 4.03509,5.50491 0.003,0.96398 -1.75301,2.69579 -2.68284,2.64578 -0.40277,-0.0217 -1.32282,-0.27798 -2.04455,-0.56959 z"
     id="path240" />
  <path
     style="fill:#ffffff;stroke-width:0.621359"
     d="m 109.931,373.34708 c -1.56376,-0.75879 -3.36789,-3.6628 -3.36789,-5.42109 0,-1.85212 2.24462,-2.90564 4.08839,-1.91889 2.14207,1.14641 3.67385,4.71072 2.82504,6.57364 -0.7228,1.58637 -1.50648,1.75576 -3.54554,0.76634 z"
     id="path279" />
  <path
     style="fill:#ffffff;stroke-width:0.621359"
     d="m 98.186639,357.6606 c -1.806113,-1.80611 -1.966326,-2.99603 -0.588858,-4.3735 1.313008,-1.31301 1.71408,-1.24648 3.980019,0.66018 1.42818,1.20173 1.89489,2.06854 1.75641,3.26214 -0.26978,2.3255 -3.03121,2.56754 -5.147571,0.45118 z"
     id="path318" />
  <path
     style="fill:#ffffff;stroke-width:0.621359"
     d="m 89.454156,348.57861 c -3.027324,-1.14559 -3.585164,-4.3456 -0.757545,-4.3456 1.766547,0 4.196593,1.62684 4.196593,2.80949 0,1.23621 -1.940763,2.10308 -3.439048,1.53611 z"
     id="path357" />
</svg>
