<?xml version="1.0" encoding="UTF-8" standalone="no"?>
<svg
   aria-hidden="true"
   focusable="false"
   data-prefix="fab"
   data-icon="linkedin-in"
   class="svg-inline--fa fa-linkedin-in fa-w-14"
   role="img"
   viewBox="0 0 448 512"
   version="1.1"
   id="svg4"
   sodipodi:docname="linkedin.svg"
   inkscape:version="1.1 (c68e22c387, 2021-05-23)"
   xmlns:inkscape="http://www.inkscape.org/namespaces/inkscape"
   xmlns:sodipodi="http://sodipodi.sourceforge.net/DTD/sodipodi-0.dtd"
   xmlns="http://www.w3.org/2000/svg"
   xmlns:svg="http://www.w3.org/2000/svg">
  <defs
     id="defs8" />
  <sodipodi:namedview
     id="namedview6"
     pagecolor="#ffffff"
     bordercolor="#666666"
     borderopacity="1.0"
     inkscape:pageshadow="2"
     inkscape:pageopacity="0.0"
     inkscape:pagecheckerboard="0"
     showgrid="false"
     inkscape:zoom="1.609375"
     inkscape:cx="224"
     inkscape:cy="254.13592"
     inkscape:window-width="1920"
     inkscape:window-height="1043"
     inkscape:window-x="0"
     inkscape:window-y="743"
     inkscape:window-maximized="1"
     inkscape:current-layer="svg4" />
  <path
     fill="currentColor"
     d="M100.28 448H7.4V148.9h92.88zM53.79 108.1C24.09 108.1 0 83.5 0 53.8a53.79 53.79 0 0 1 107.58 0c0 29.7-24.1 54.3-53.79 54.3zM447.9 448h-92.68V302.4c0-34.7-.7-79.2-48.29-79.2-48.29 0-55.69 37.7-55.69 76.7V448h-92.78V148.9h89.08v40.8h1.3c12.4-23.5 42.69-48.3 87.88-48.3 94 0 111.28 61.9 111.28 142.3V448z"
     id="path2" />
  <path
     style="fill:#ffffff;stroke-width:0.621359"
     d="M 7.7669903,298.56311 V 149.12621 H 53.747573 99.728155 V 298.56311 448 H 53.747573 7.7669903 Z"
     id="path102" />
  <path
     style="fill:#ffffff;stroke-width:0.621359"
     d="M 41.62698,106.28469 C 31.628265,103.66184 23.370657,98.994361 16.404205,92.027905 -4.3598365,71.263863 -5.0135397,38.664393 14.90991,17.509073 25.656972,6.0975182 38.237278,0.63006577 53.747573,0.63006577 c 44.601364,0 69.316017,50.82654723 41.971877,86.31661823 -7.375242,9.57235 -17.604815,16.172576 -29.965129,19.333816 -6.35229,1.62464 -17.942242,1.62666 -24.127341,0.004 z"
     id="path141" />
  <path
     style="fill:#ffffff;stroke-width:0.621359"
     d="m 158.75728,298.56311 v -149.4369 h 44.11651 44.1165 v 20.50486 c 0,19.1176 0.0736,20.50425 1.08738,20.4959 0.64966,-0.005 1.74176,-1.19618 2.713,-2.95825 5.15698,-9.35611 16.21882,-20.86275 26.96312,-28.04731 18.82158,-12.58574 39.80388,-18.15737 64.92582,-17.2404 16.3819,0.59796 28.00354,2.46268 39.75365,6.37859 34.40905,11.46735 54.343,38.22508 61.56191,82.6357 3.28656,20.21898 3.23846,18.55595 3.50774,121.26004 L 447.7542,448 h -45.9733 -45.97329 l -0.25557,-84.66019 c -0.22186,-73.49676 -0.38804,-85.6434 -1.26021,-92.11651 -1.42061,-10.5434 -3.68831,-18.86497 -6.99088,-25.6538 -2.29646,-4.72065 -3.77682,-6.78682 -7.61928,-10.63435 -5.37518,-5.38229 -9.77382,-7.96856 -17.21805,-10.12372 -4.41295,-1.27758 -6.19427,-1.42732 -16.4442,-1.38233 -12.93,0.0567 -17.56212,0.92971 -25.90427,4.88187 -14.71164,6.96974 -23.4595,20.69758 -27.1473,42.60165 -1.93175,11.47377 -2.24499,25.61367 -2.2472,101.43689 L 250.71845,448 h -45.98059 -45.98058 z"
     id="path180" />
</svg>
